# xmcd
#
# Track frame offsets: 
#        150
#        19055
#        42610
#        71190
#        92243
#        116540
#        146450
#        170433
#        188680
#        217668
#
# Disc length: 3124 seconds
#
# Revision: 2
# Processed by: cddbd v1.5.2PL0 Copyright (c) Steve Scherf et al.
# Submitted via: ExactAudioCopy v1.0b3
#
DISCID=8a0c320a
DTITLE=Ngoc Lan, VA - Nang Thuy Tinh
DYEAR=1988
DGENRE=
TTITLE0=Ngoc Lan - Nang thuy tinh
TTITLE1=Elvis Phuong - Chieu hoang
TTITLE2=Le Thu - Mai toc da huong
TTITLE3=Vu Khanh - Nguoi em Van khoa
TTITLE4=Ngoc Lan - Mat biec
TTITLE5=Ngoc Lan - Tha nhu giot mua
TTITLE6=Elvis Phuong - No tran
TTITLE7=Le Thu - O ben nha
TTITLE8=Vu Khanh - Tuong tu 4
TTITLE9=Ngoc Lan - Hoang vu
EXTD=
EXTT0=
EXTT1=
EXTT2=
EXTT3=
EXTT4=
EXTT5=
EXTT6=
EXTT7=
EXTT8=
EXTT9=
PLAYORDER=
